<svg xmlns="http://www.w3.org/2000/svg" width="202" height="75" viewBox="0 0 202 75" css-inspector-installed="true"><g id="Grupo_3474" data-name="Grupo 3474" transform="translate(-154.796 -354.914)"><path id="Caminho_22289" data-name="Caminho 22289" d="M218.867,373.38l-9.349-16.092c-.073-.125-.158-.24-.24-.356l-5.192,9.049a2,2,0,1,1-3.468-1.99l5.192-9.048c-.142-.013-.284-.028-.429-.028l-17.978.049,10.2,18.355Z" transform="translate(-17.274)" fill="#0090df"/><path id="Caminho_22290" data-name="Caminho 22290" d="M182.557,378.523l3.607,6.49a2,2,0,1,1-3.5,1.943l-16.55-29.777a4.761,4.761,0,0,0-1.2,1.382L155.429,375.1a4.771,4.771,0,0,0,.013,4.769l9.578,16.486c.072.125.157.239.24.356l5.163-9a2,2,0,0,1,3.469,1.99l-5.164,9c.142.013.284.028.428.027l19.067-.052a4.767,4.767,0,0,0,4.123-2.4l9.489-16.538a4.773,4.773,0,0,0,.476-1.161Z" transform="translate(0 -1.199)" fill="#006194"/><path id="Caminho_22318" data-name="Caminho 22318" d="M297.031,396.792a1.994,1.994,0,0,1,.592,1.5v9.1a5.444,5.444,0,0,1-.508,2.752,3.713,3.713,0,0,1-2.074,1.312,21.809,21.809,0,0,1-3.937.931,28.956,28.956,0,0,1-4.318.339,16.655,16.655,0,0,1-8-1.82,12.292,12.292,0,0,1-5.186-5.27,17.589,17.589,0,0,1-1.8-8.234,17.393,17.393,0,0,1,1.8-8.149,12.554,12.554,0,0,1,5.1-5.292,15.738,15.738,0,0,1,7.789-1.842,14.637,14.637,0,0,1,9.779,3.218,3.313,3.313,0,0,1,.741.931,2.692,2.692,0,0,1-.276,2.668,1.526,1.526,0,0,1-1.227.635,2.308,2.308,0,0,1-.847-.148,4.8,4.8,0,0,1-.889-.487A13.511,13.511,0,0,0,290.3,387.1a11.646,11.646,0,0,0-3.641-.529q-4.614,0-6.964,2.731t-2.349,8.107q0,11.008,9.652,11.007a21.279,21.279,0,0,0,5.757-.8v-7.493h-4.784a2.308,2.308,0,0,1-1.587-.508,2.1,2.1,0,0,1,0-2.879,2.308,2.308,0,0,1,1.587-.508h7.493A2.163,2.163,0,0,1,297.031,396.792Z" transform="translate(-61.986 -14.462)" fill="#192c35"/><path id="Caminho_22319" data-name="Caminho 22319" d="M347.768,401.933a2.067,2.067,0,0,1,.635,1.651,2.306,2.306,0,0,1-.55,1.693,3.382,3.382,0,0,1-1.99.72l-1.27.127a5.144,5.144,0,0,0-3.662,1.693,5.538,5.538,0,0,0-1.164,3.6v8.89a2.35,2.35,0,0,1-.762,1.884,2.817,2.817,0,0,1-1.905.656,2.736,2.736,0,0,1-1.884-.656,2.383,2.383,0,0,1-.741-1.884V403.923a2.265,2.265,0,0,1,.741-1.82,2.73,2.73,0,0,1,1.842-.635,2.55,2.55,0,0,1,1.778.614,2.251,2.251,0,0,1,.677,1.757v1.693a6.263,6.263,0,0,1,2.392-2.879,7.328,7.328,0,0,1,3.535-1.143l.593-.042A2.282,2.282,0,0,1,347.768,401.933Z" transform="translate(-95.19 -24.723)" fill="#192c35"/><path id="Caminho_22320" data-name="Caminho 22320" d="M369.04,421.535a9.075,9.075,0,0,1-3.7-3.768,11.94,11.94,0,0,1-1.312-5.715,11.82,11.82,0,0,1,1.312-5.693,9.114,9.114,0,0,1,3.7-3.747,12.462,12.462,0,0,1,11.133,0,8.982,8.982,0,0,1,3.683,3.747,11.978,11.978,0,0,1,1.292,5.693,12.1,12.1,0,0,1-1.292,5.715,8.944,8.944,0,0,1-3.683,3.768,12.458,12.458,0,0,1-11.133,0Zm9.461-4.487a9.847,9.847,0,0,0,0-9.969,4.671,4.671,0,0,0-3.894-1.715,4.73,4.73,0,0,0-3.916,1.715,9.785,9.785,0,0,0-.021,9.969,4.7,4.7,0,0,0,3.895,1.693A4.745,4.745,0,0,0,378.5,417.048Z" transform="translate(-110.844 -24.641)" fill="#192c35"/><path id="Caminho_22321" data-name="Caminho 22321" d="M441.134,401.9a2.209,2.209,0,0,1,1.249-.381,2.669,2.669,0,0,1,1.757.656,2.046,2.046,0,0,1,.783,1.63,2.147,2.147,0,0,1-.212.973l-6.985,16.383a2.547,2.547,0,0,1-1.038,1.228,2.929,2.929,0,0,1-1.545.424,2.856,2.856,0,0,1-1.5-.424,2.538,2.538,0,0,1-1.037-1.228l-5.037-12.107L422.7,421.165a2.544,2.544,0,0,1-1.037,1.228,2.929,2.929,0,0,1-1.545.424,2.963,2.963,0,0,1-1.524-.424,2.5,2.5,0,0,1-1.058-1.228l-6.943-16.383a2.686,2.686,0,0,1-.212-.931,2.1,2.1,0,0,1,.847-1.673,2.861,2.861,0,0,1,1.863-.7,2.377,2.377,0,0,1,1.312.381,2.3,2.3,0,0,1,.889,1.143l5,12.912,5.122-12.784a2.542,2.542,0,0,1,4.741,0l5.165,12.827,4.953-12.912A2.34,2.34,0,0,1,441.134,401.9Z" transform="translate(-135.402 -24.736)" fill="#192c35"/><path id="Caminho_22322" data-name="Caminho 22322" d="M487.077,395.178v-3.895a2.38,2.38,0,0,1,.719-1.82,2.728,2.728,0,0,1,1.947-.677,2.671,2.671,0,0,1,1.905.677,2.383,2.383,0,0,1,.719,1.82v3.895h3.6a2.689,2.689,0,0,1,1.757.508,2.1,2.1,0,0,1,0,2.963,2.689,2.689,0,0,1-1.757.508h-3.6v9.61q0,3.133,2.879,3.344l1.143.085q2.117.127,2.117,1.9a1.721,1.721,0,0,1-.826,1.545,3.944,3.944,0,0,1-2.35.445l-1.143-.085q-7.113-.508-7.112-7.62v-9.229" transform="translate(-176.036 -17.999)" fill="#192c35"/><path id="Caminho_22323" data-name="Caminho 22323" d="M535.617,399.841v10.414a2.474,2.474,0,0,1-.7,1.863,2.654,2.654,0,0,1-1.927.678,2.728,2.728,0,0,1-1.947-.678,2.432,2.432,0,0,1-.719-1.863V399.841a4.9,4.9,0,0,0-.91-3.281,3.613,3.613,0,0,0-2.858-1.037,4.831,4.831,0,0,0-3.662,1.439,5.344,5.344,0,0,0-1.376,3.853v9.44a2.434,2.434,0,0,1-.719,1.863,2.732,2.732,0,0,1-1.948.678,2.653,2.653,0,0,1-1.927-.678,2.474,2.474,0,0,1-.7-1.863V384.94a2.294,2.294,0,0,1,.741-1.778,2.743,2.743,0,0,1,1.926-.677,2.778,2.778,0,0,1,1.906.635,2.2,2.2,0,0,1,.719,1.736v9.863a6.933,6.933,0,0,1,2.815-2.519,8.929,8.929,0,0,1,4-.868Q535.615,391.332,535.617,399.841Z" transform="translate(-191.479 -14.653)" fill="#192c35"/><g id="Grupo_3473" data-name="Grupo 3473" transform="translate(280.296 401.774)"><path id="Caminho_22324" data-name="Caminho 22324" d="M432.073,482.746a1.615,1.615,0,0,1-.451-1.2v-23.47h-8.438a1.585,1.585,0,0,1-1.1-.353,1.524,1.524,0,0,1,0-2.041,1.588,1.588,0,0,1,1.1-.353h20.133a1.585,1.585,0,0,1,1.1.353,1.523,1.523,0,0,1,0,2.041,1.583,1.583,0,0,1-1.1.353h-8.438v23.47a1.66,1.66,0,0,1-.432,1.2,1.556,1.556,0,0,1-1.178.451A1.619,1.619,0,0,1,432.073,482.746Z" transform="translate(-421.692 -455.136)" fill="#192c35"/><path id="Caminho_22325" data-name="Caminho 22325" d="M482.425,488.029a1.309,1.309,0,0,1,.315.9q0,.982-1.374,1.806a11.9,11.9,0,0,1-2.983,1.236,12.035,12.035,0,0,1-3.061.412,9.346,9.346,0,0,1-7.005-2.629,9.941,9.941,0,0,1-2.571-7.261,11.4,11.4,0,0,1,1.138-5.2,8.493,8.493,0,0,1,3.2-3.513,8.831,8.831,0,0,1,4.69-1.256,7.592,7.592,0,0,1,5.927,2.433,9.472,9.472,0,0,1,2.2,6.594,1.69,1.69,0,0,1-.315,1.138,1.3,1.3,0,0,1-1.02.353H468.924q.353,6.751,6.4,6.751a7.506,7.506,0,0,0,2.63-.412,17.147,17.147,0,0,0,2.355-1.119,3.721,3.721,0,0,1,1.373-.588A.966.966,0,0,1,482.425,488.029Zm-11.637-11.46A7.173,7.173,0,0,0,469,481h11.107a6.8,6.8,0,0,0-1.452-4.454A4.871,4.871,0,0,0,474.811,475,5.326,5.326,0,0,0,470.788,476.568Z" transform="translate(-445.03 -464.245)" fill="#192c35"/><path id="Caminho_22326" data-name="Caminho 22326" d="M512.5,491.168a8.126,8.126,0,0,1-3.18-3.454,12.449,12.449,0,0,1,.04-10.4,8.551,8.551,0,0,1,3.238-3.532,9.081,9.081,0,0,1,4.788-1.256,10.933,10.933,0,0,1,2.963.412,8.169,8.169,0,0,1,2.571,1.2,3.485,3.485,0,0,1,1,.922,1.792,1.792,0,0,1,.294,1,1.361,1.361,0,0,1-.294.9.949.949,0,0,1-.766.353,1.322,1.322,0,0,1-.589-.157,3.64,3.64,0,0,1-.529-.314,2.846,2.846,0,0,0-.294-.2,12.688,12.688,0,0,0-1.943-1.06,5.778,5.778,0,0,0-2.257-.392,5.435,5.435,0,0,0-4.455,1.943,8.293,8.293,0,0,0-1.589,5.4,8.047,8.047,0,0,0,1.589,5.337,5.51,5.51,0,0,0,4.455,1.884,6.064,6.064,0,0,0,2.3-.393,10.534,10.534,0,0,0,1.943-1.059,9.488,9.488,0,0,1,.824-.471,1.561,1.561,0,0,1,.667-.2.909.909,0,0,1,.726.353,1.362,1.362,0,0,1,.294.9,1.631,1.631,0,0,1-.275.922,3.847,3.847,0,0,1-1.02.923,9.31,9.31,0,0,1-2.649,1.2,11.134,11.134,0,0,1-3.12.451A9.117,9.117,0,0,1,512.5,491.168Z" transform="translate(-467.524 -464.245)" fill="#192c35"/><path id="Caminho_22327" data-name="Caminho 22327" d="M564.083,465.1q1.727,1.9,1.727,5.671v10.636a1.526,1.526,0,0,1-.432,1.158,1.581,1.581,0,0,1-1.138.412,1.634,1.634,0,0,1-1.177-.412,1.522,1.522,0,0,1-.432-1.158V470.85a5.715,5.715,0,0,0-1.04-3.768,4.139,4.139,0,0,0-3.316-1.216,5.6,5.6,0,0,0-4.2,1.609,5.972,5.972,0,0,0-1.57,4.357v9.577a1.432,1.432,0,0,1-1.57,1.57,1.636,1.636,0,0,1-1.178-.412,1.522,1.522,0,0,1-.432-1.158V456.446a1.454,1.454,0,0,1,.451-1.1,1.6,1.6,0,0,1,1.158-.432,1.566,1.566,0,0,1,1.157.412,1.512,1.512,0,0,1,.412,1.119v10.283a6.37,6.37,0,0,1,2.63-2.63,8.03,8.03,0,0,1,3.846-.9A6.542,6.542,0,0,1,564.083,465.1Z" transform="translate(-489.31 -454.915)" fill="#192c35"/></g></g><div xmlns="" id="divScriptsUsed" style="display: none"/><script xmlns="" id="globalVarsDetection" /><script xmlns=""/></svg>